# Blender v2.93.4 OBJ File: ''
# www.blender.org
mtllib BishopW.mtl
o BishopW
v 0.000387 3.307150 0.000084
v 0.756107 2.929180 0.425365
v 0.756299 2.929020 -0.424885
v 0.000173 2.929080 0.897756
v 0.000301 2.740220 0.000195
v -0.755770 2.929120 0.425503
v -0.755490 2.929280 -0.424945
v 0.000353 2.929050 -0.897140
v 0.472650 3.684860 0.283895
v 0.472641 3.684900 -0.283275
v 0.378326 4.157390 -0.235928
v 0.425581 3.070730 0.236592
v 0.000273 3.071030 0.520078
v 0.000407 3.685150 0.567283
v -0.425140 3.071020 0.236592
v -0.471934 3.685150 0.283699
v 0.000297 4.157390 0.472742
v -0.377610 4.157290 0.236466
v 0.047784 4.393640 0.000256
v 0.378265 4.157440 0.236545
v 0.000419 4.157300 -0.472204
v -0.377682 4.157470 -0.235709
v -0.472165 3.685070 -0.282974
v 0.000168 3.685110 -0.566562
v 0.425646 3.070690 -0.235879
v 0.000320 3.071010 -0.519565
v -0.425080 3.070980 -0.235879
v -0.188617 4.677240 0.094717
v 0.000328 4.677180 0.236579
v 0.000347 4.818950 0.000388
v 0.000202 2.598370 0.000399
v -0.188621 4.677290 -0.094024
v 0.000388 4.677140 -0.235894
v 0.189337 4.677090 -0.094032
v 0.189338 4.677040 0.094707
v 0.614396 0.850303 0.331014
v 0.614095 0.850308 -0.330357
v 0.330741 1.795310 -0.188426
v 0.944926 0.283455 0.567144
v 0.945046 0.283417 -0.566540
v 0.945070 -0.000162 -0.566634
v 0.944817 0.000096 0.567348
v 0.000255 0.000049 -1.133500
v 0.000231 0.283627 -1.133410
v 0.000258 0.850611 -0.661043
v 0.000343 1.795320 -0.424943
v 0.000310 4.724500 0.000457
v 0.330967 1.795430 0.189507
v 0.000047 0.850270 0.661576
v 0.000064 1.795170 0.425504
v -0.330462 1.795400 0.189285
v -0.330692 1.795280 -0.188650
v -0.614089 0.850578 -0.330485
v -0.944794 0.283549 -0.566393
v -0.944680 0.000298 -0.566689
v 0.000015 0.000125 1.133860
v -0.000009 0.283704 1.133960
v -0.944914 0.283588 0.567290
v -0.613793 0.850571 0.330886
v -0.944890 0.000009 0.567197
vt 0.500000 0.502930
vt 0.000000 0.750000
vt 0.000000 0.250000
vt 0.499949 1.000060
vt -0.000051 0.750063
vt 0.499949 0.502993
vt 0.500044 0.999923
vt 0.500042 0.502853
vt 0.000043 0.749924
vt 1.000150 0.749918
vt 0.500154 0.502840
vt 0.500143 0.999910
vt 1.000390 0.750005
vt 1.000390 0.250005
vt 0.500390 0.502935
vt 1.000610 0.749847
vt 0.500622 0.502760
vt 1.000630 0.249847
vt 0.999966 0.749968
vt 0.499966 0.999968
vt 1.000670 0.249541
vt 0.500654 0.502451
vt 0.500685 -0.000478
vt 0.500162 -0.000020
vt 0.500135 0.502911
vt 0.000150 0.249964
vt 0.500225 0.502940
vt 0.000231 0.250002
vt 0.999785 0.250168
vt 0.499781 0.000174
vt 0.499790 0.503104
vt 0.499782 0.502923
vt -0.000218 0.249992
vt -0.000219 0.749992
vt -0.509770 0.628420
vt -0.199220 0.628420
vt -0.199220 1.125000
vt -0.509770 0.000000
vt 1.490230 0.628420
vt 1.174810 0.000000
vt 1.490230 0.000000
vt 1.174810 0.628449
vt 0.800764 0.000016
vt 0.800780 0.628420
vt 1.174810 1.125000
vt 0.800780 1.125000
vt 0.878910 0.780270
vt 0.409180 0.923830
vt 0.500000 0.500000
vt 0.406449 0.921783
vt 0.028411 0.641581
vt 0.497078 0.497915
vt 1.490230 1.125000
vt -0.509770 1.125000
vt 0.498155 0.498940
vt 0.029429 0.642547
vt 0.119199 0.218716
vt 0.590464 0.076154
vt 0.499653 0.499985
vt 0.120738 0.219719
vt 0.968750 0.356450
vt 0.590820 0.076170
vt 0.490230 1.125000
vt 0.490230 0.628420
vt 0.174810 0.628420
vt 0.174810 1.125000
vt -0.199220 0.000000
vt 0.174858 0.628388
vt 0.174858 -0.000032
vt 0.174809 0.628291
vt 0.174809 -0.000129
vt 0.490229 0.628291
vt 0.174810 -0.000000
vt 0.490230 -0.000000
vt -0.093750 0.433590
vt -0.093750 0.115230
vt 0.416020 0.220700
vt 2.500270 1.000170
vt 1.250190 0.000170
vt 3.000270 1.000170
vt 2.499360 0.999651
vt 1.999360 0.999651
vt 2.249340 -0.000349
vt 0.453130 0.535160
vt 1.000000 0.318360
vt 1.000000 -0.000000
vt 0.453130 -0.101560
vt -0.008971 1.000020
vt 0.240836 0.000022
vt 0.491029 1.000020
vt 0.491824 1.000190
vt 0.741528 0.000192
vt 0.991824 1.000190
vt 1.496040 0.999929
vt 0.996042 0.999924
vt 1.246210 -0.000074
vt 1.997050 1.000020
vt 1.497050 1.000020
vt 1.747090 0.000023
vt -0.500000 0.381840
vt -0.166500 0.381840
vt -0.166500 1.000000
vt -0.500000 -0.000000
vt -0.166500 0.000000
vt -0.478068 0.995693
vt -0.144575 -0.004626
vt -0.144568 0.995374
vt -0.478162 -0.003528
vt 1.499970 1.013430
vt 1.000070 2.026670
vt 0.000073 2.026630
vt -0.144530 0.999981
vt -0.144530 -0.000019
vt 0.188960 -0.000017
vt 0.188960 0.999981
vt 0.166500 0.381840
vt 0.166500 0.000000
vt 0.166500 1.000000
vt -0.249976 0.999982
vt 0.073754 -0.000018
vt 0.250024 -0.000018
vt -0.073730 0.000000
vt 0.073730 0.000000
vt -0.500000 1.000000
vt 1.500000 1.000000
vt 1.166500 0.381840
vt 1.500000 0.381840
vt 1.166500 1.000000
vt 0.750144 1.000060
vt 0.750136 0.000058
vt 0.926406 0.000057
vt 0.750342 0.999968
vt 0.574064 -0.000031
vt 0.750334 -0.000032
vt 0.574288 -0.000141
vt 0.750586 0.999861
vt 0.426829 -0.000138
vt -0.250991 1.000550
vt 0.248974 0.000554
vt 0.425246 0.000550
vt 0.500000 1.000000
vt 0.500000 0.381840
vt 0.500000 0.000000
vt 0.188795 0.992679
vt 0.521798 -0.007606
vt 0.521859 0.991240
vt 0.188788 -0.007321
vt 1.000130 0.000300
vt -0.499507 1.013640
vt -0.478224 1.008590
vt -0.811234 0.009008
vt -0.478314 0.009362
vt -0.811224 1.009010
vt 1.188960 1.000000
vt 0.855470 1.000000
vt 1.188960 -0.000000
vt 0.833500 0.000000
vt 1.166500 0.000000
vt 0.833500 0.381840
vt 0.833500 1.000000
vt 0.855422 1.003970
vt 0.521981 1.003030
vt 0.855418 0.003971
vt 0.521918 0.004186
vt 0.000211 0.000307
vt 0.855470 -0.000000
vt 1.500000 -0.000000
vn 0.4473 0.8944 -0.0001
vn 0.2356 0.8956 0.3773
vn 0.0000 -0.9786 0.2059
vn -0.0001 -1.0000 -0.0000
vn 0.1860 -0.9771 0.1035
vn -0.1860 -0.9771 0.1033
vn -0.1862 -0.9770 -0.1035
vn -0.4472 0.8945 0.0000
vn -0.2356 0.8957 0.3772
vn -0.2355 0.8956 -0.3774
vn 0.2358 0.8955 -0.3774
vn -0.0002 -0.9786 -0.2059
vn 0.1860 -0.9771 -0.1033
vn 0.9982 0.0593 0.0000
vn 0.9806 0.1958 0.0000
vn 0.9971 -0.0763 0.0001
vn 0.5233 0.0472 0.8509
vn 0.5341 -0.0875 0.8409
vn 0.5515 -0.1060 0.8274
vn 0.5174 0.0535 0.8541
vn -0.5235 0.0390 0.8512
vn -0.5344 -0.0827 0.8412
vn -0.5534 -0.0637 0.8305
vn -0.5180 0.0327 0.8548
vn -0.5135 0.1774 0.8395
vn -0.5208 0.1874 0.8329
vn -0.2574 0.8744 0.4113
vn 0.2821 0.8465 0.4516
vn 0.5134 0.1773 0.8397
vn 0.5224 0.1675 0.8361
vn 0.9806 0.1959 0.0001
vn 0.5815 0.8136 -0.0000
vn 0.2822 0.8464 -0.4517
vn -0.2571 0.8744 -0.4116
vn -0.4855 0.8742 0.0004
vn -0.9806 0.1960 0.0003
vn -0.9806 0.1961 0.0002
vn -0.9982 0.0594 0.0004
vn -0.5136 0.1772 -0.8395
vn -0.5176 0.0535 -0.8539
vn -0.5234 0.0474 -0.8507
vn -0.5228 0.1673 -0.8359
vn 0.5133 0.1772 -0.8397
vn 0.5176 0.0323 -0.8550
vn 0.5232 0.0387 -0.8514
vn 0.5207 0.1874 -0.8329
vn 0.5343 -0.0827 -0.8412
vn 0.5537 -0.0634 -0.8303
vn -0.5343 -0.0872 -0.8408
vn -0.5517 -0.1057 -0.8273
vn -0.9982 0.0594 0.0003
vn -0.9971 -0.0762 0.0001
vn -0.9971 -0.0760 -0.0001
vn -0.3602 0.7999 0.4801
vn -0.5980 -0.0904 0.7964
vn -0.9959 -0.0905 -0.0000
vn -0.5999 0.8001 0.0002
vn -0.3598 0.8000 -0.4802
vn 0.3606 0.7998 -0.4799
vn 0.6004 0.7997 0.0002
vn 0.3609 0.7996 0.4800
vn 0.5978 -0.0905 0.7965
vn 0.9959 -0.0906 -0.0000
vn 0.5979 -0.0906 -0.7964
vn -0.5979 -0.0905 -0.7965
vn 0.9103 0.4140 -0.0004
vn 0.9102 0.4143 -0.0002
vn 0.9785 0.2061 -0.0006
vn 0.8638 0.5039 -0.0002
vn 0.8636 0.5041 0.0001
vn 1.0000 -0.0003 0.0002
vn 1.0000 0.0000 0.0001
vn 1.0000 0.0001 0.0001
vn 1.0000 -0.0004 0.0002
vn -0.0002 -1.0000 0.0001
vn -0.0004 -1.0000 0.0002
vn -0.0001 -1.0000 0.0001
vn 0.5145 0.0003 -0.8575
vn 0.4120 0.5676 -0.7128
vn 0.4093 0.5619 -0.7188
vn 0.4187 0.5813 -0.6977
vn 0.3990 0.5413 -0.7401
vn 0.5501 0.1934 -0.8124
vn 0.4890 0.2335 -0.8404
vn 0.4633 0.2148 -0.8598
vn 0.5695 0.2068 -0.7955
vn 0.5781 0.1173 -0.8075
vn 0.9785 0.2061 -0.0007
vn 0.9937 0.1121 -0.0006
vn 0.5511 0.1748 0.8159
vn 0.4864 0.2481 0.8378
vn 0.4570 0.2642 0.8493
vn 0.5730 0.1613 0.8035
vn 0.5766 0.1173 0.8086
vn -0.5774 0.1173 0.8080
vn -0.5688 0.2066 0.7961
vn -0.5495 0.1932 0.8128
vn -0.9785 0.2062 0.0005
vn -0.9937 0.1122 0.0006
vn -0.5770 0.1174 -0.8083
vn -0.5734 0.1614 -0.8032
vn -0.5514 0.1750 -0.8157
vn -0.4865 0.2484 -0.8376
vn -0.4570 0.2646 -0.8492
vn -0.3821 0.5915 -0.7100
vn -0.4066 0.5703 -0.7138
vn -0.4132 0.5644 -0.7147
vn -0.4301 0.5490 -0.7167
vn -0.5144 0.0003 -0.8575
vn -0.5145 0.0006 -0.8575
vn -0.5145 0.0007 -0.8575
vn -0.5144 0.0002 -0.8576
vn 0.0000 -1.0000 -0.0000
vn 0.5143 0.0003 0.8576
vn 0.5144 -0.0002 0.8576
vn 0.5142 0.0004 0.8576
vn 0.5144 -0.0003 0.8576
vn -0.5143 -0.0003 0.8576
vn -0.4117 0.5679 0.7128
vn -0.4089 0.5622 0.7189
vn -0.4184 0.5817 0.6976
vn -0.3985 0.5414 0.7403
vn -0.8635 0.5043 -0.0001
vn -0.9101 0.4143 0.0002
vn -0.8637 0.5040 0.0001
vn -0.9102 0.4141 0.0004
vn -0.4887 0.2334 0.8407
vn -0.4631 0.2148 0.8599
vn -1.0000 -0.0001 -0.0001
vn -1.0000 -0.0004 -0.0002
vn 0.0003 -1.0000 -0.0003
vn 0.4131 0.5646 0.7145
vn 0.3819 0.5918 0.7099
vn 0.4064 0.5706 0.7136
vn 0.4300 0.5492 0.7166
g BishopW_BishopW_Mesh1_Group2_Group1_Model
usemtl Mesh1_Group2_Group1_Model
s 1
f 1/1/1 2/2/1 3/3/1
f 4/4/2 2/5/2 1/6/2
f 4/7/3 5/8/4 2/9/5
f 6/10/6 5/11/4 4/12/3
f 6/13/6 7/14/7 5/15/4
f 6/16/8 1/17/8 7/18/8
f 6/19/9 4/20/9 1/1/9
f 7/21/10 1/22/10 8/23/10
f 8/24/11 1/25/11 3/26/11
f 5/27/4 8/24/12 3/28/13
f 7/29/7 8/30/12 5/31/4
f 5/32/4 3/33/13 2/34/5
g BishopW_BishopW_Mesh2_Group3_Group1_Model
usemtl Mesh2_Group3_Group1_Model
f 9/35/14 10/36/14 11/37/15
f 9/35/14 12/38/16 10/36/14
f 9/39/17 13/40/18 12/41/19
f 14/42/20 13/40/18 9/39/17
f 14/42/21 15/43/22 13/40/23
f 14/42/21 16/44/24 15/43/22
f 17/45/25 16/44/24 14/42/21
f 17/45/25 18/46/26 16/44/24
f 18/47/27 17/48/27 19/49/27
f 17/50/28 20/51/28 19/52/28
f 20/53/29 17/45/30 14/42/20
f 20/53/29 14/42/20 9/39/17
f 9/35/14 11/37/15 20/54/31
f 19/55/32 20/56/32 11/57/32
f 21/58/33 19/59/33 11/60/33
f 22/61/34 19/49/34 21/62/34
f 22/61/35 18/47/35 19/49/35
f 18/46/36 22/63/37 23/64/38
f 22/63/39 24/65/40 23/64/41
f 22/63/39 21/66/42 24/65/40
f 21/66/43 10/36/44 24/65/45
f 11/37/46 10/36/44 21/66/43
f 24/65/45 10/36/44 25/67/47
f 12/38/16 25/67/16 10/36/14
f 24/68/45 25/67/47 26/69/48
f 24/70/40 26/71/49 23/72/41
f 23/64/41 26/73/49 27/74/50
f 16/44/51 23/64/38 27/74/52
f 16/44/51 18/46/36 23/64/38
f 16/44/51 27/74/52 15/43/53
g BishopW_BishopW_Mesh3_Group4_Group1_Model
usemtl Mesh3_Group4_Group1_Model
f 28/75/54 29/76/54 30/77/54
f 28/78/55 31/79/55 29/80/55
f 28/81/56 32/82/56 31/83/56
f 32/84/57 28/75/57 30/77/57
f 32/84/58 30/77/58 33/85/58
f 30/77/59 34/86/59 33/85/59
f 30/77/60 35/87/60 34/86/60
f 29/76/61 35/87/61 30/77/61
f 29/88/62 31/89/62 35/90/62
f 35/91/63 31/92/63 34/93/63
f 33/94/64 34/95/64 31/96/64
f 32/97/65 33/98/65 31/99/65
g BishopW_BishopW_Mesh4_Group5_Group1_Model
usemtl Mesh4_Group5_Group1_Model
f 36/100/66 37/101/67 38/102/68
f 39/103/69 37/101/67 36/100/66
f 39/103/69 40/104/70 37/101/67
f 39/105/71 41/106/72 40/107/73
f 42/108/74 41/106/72 39/105/71
f 43/109/75 41/110/76 42/111/77
f 40/112/78 41/113/78 43/114/78
f 44/115/78 40/112/78 43/114/78
f 45/116/79 40/104/80 44/117/81
f 45/116/79 37/101/82 40/104/80
f 46/118/83 37/101/84 45/116/85
f 46/118/83 38/102/86 37/101/84
f 47/119/87 38/120/86 46/121/83
f 48/122/88 38/123/68 47/119/89
f 36/100/66 38/102/68 48/124/88
f 48/125/90 49/126/91 36/127/92
f 48/125/90 50/128/93 49/126/91
f 47/129/94 50/130/93 48/131/90
f 47/132/95 51/133/96 50/134/97
f 51/135/98 47/136/99 52/137/98
f 47/138/100 46/139/101 52/140/102
f 46/118/101 45/116/103 52/141/102
f 52/141/102 45/116/103 53/142/104
f 45/116/105 44/117/106 53/142/107
f 53/142/107 44/117/106 54/143/108
f 44/144/109 55/145/110 54/146/111
f 44/144/109 43/147/112 55/145/110
f 55/148/4 43/109/75 56/149/113
f 56/149/113 43/109/75 42/111/77
f 39/150/114 56/151/115 42/152/116
f 57/153/117 56/151/115 39/150/114
f 57/154/118 58/155/118 56/156/118
f 49/126/119 58/157/120 57/158/121
f 59/159/122 58/157/120 49/126/119
f 58/157/123 59/159/124 54/143/125
f 59/159/124 53/142/126 54/143/125
f 59/159/124 51/160/98 53/142/126
f 51/160/96 59/159/127 50/128/97
f 50/128/97 59/159/127 49/126/128
f 51/160/98 52/141/98 53/142/126
f 58/161/129 54/162/130 60/163/129
f 60/163/129 54/162/130 55/164/130
f 60/165/131 55/148/4 56/149/113
f 58/155/118 60/166/118 56/156/118
f 36/127/132 49/126/133 57/158/134
f 36/127/132 57/158/134 39/167/135
