# Blender v2.93.4 OBJ File: ''
# www.blender.org
mtllib PawnW.mtl
o PawnW
v -0.000079 1.133650 -0.000185
v 0.472616 1.370200 -0.283588
v 0.472625 1.370170 0.283583
v 0.000264 1.369990 -0.519720
v -0.472417 1.370160 -0.283744
v -0.000031 1.606140 -0.000227
v -0.472408 1.370130 0.283428
v -0.000146 1.370010 0.519762
v -0.000139 1.322770 -0.000026
v 0.425292 1.653580 -0.236303
v 0.425230 1.653620 0.236173
v 0.000241 1.653570 -0.519628
v -0.425027 1.653320 -0.236240
v 0.000141 2.126010 -0.661618
v 0.566917 2.125930 -0.330727
v 0.425299 2.598220 -0.236187
v 0.567216 2.125920 0.330645
v -0.000038 1.653360 0.519558
v 0.000160 2.125900 0.661463
v 0.000339 2.598210 0.472386
v -0.566616 2.125980 0.330572
v -0.424990 2.598330 0.236147
v -0.424930 2.598290 -0.236325
v 0.000044 2.834680 -0.000221
v 0.425239 2.598260 0.236286
v 0.000329 2.598340 -0.472263
v -0.566917 2.125990 -0.330796
v -0.424998 1.653690 0.236032
v 0.000099 0.141906 0.897487
v -0.000000 0.000063 0.897690
v 0.755944 0.141680 0.425295
v -0.755847 0.141938 0.425232
v -0.755813 -0.000125 0.425137
v -0.756016 0.141772 -0.425175
v -0.425098 0.661286 -0.236221
v -0.425159 0.661330 0.236251
v -0.000108 0.661332 0.519577
v -0.000027 1.842650 -0.000203
v 0.000170 0.661542 -0.519609
v 0.425221 0.661544 -0.236284
v 0.425159 0.661590 0.236192
v 0.755865 0.141841 -0.425313
v 0.755766 -0.000002 -0.425110
v 0.756067 -0.000056 0.424999
v -0.755893 0.000036 -0.425471
v -0.000048 -0.000190 -0.897663
v -0.000081 0.141873 -0.897567
vt -0.000000 0.300780
vt -0.000000 0.041020
vt 0.333500 0.300780
vt -0.333500 0.300780
vt -0.333500 0.041020
vt -0.333339 0.297467
vt -0.666260 0.297029
vt -0.333345 0.037707
vt -0.144530 -0.000000
vt -0.478030 1.000000
vt -0.478030 -0.000000
vt -0.144530 1.000000
vt 0.188960 1.000000
vt -0.250020 0.999978
vt 0.073712 -0.000023
vt 0.249981 -0.000021
vt 0.073783 0.000016
vt -0.249944 1.000020
vt -0.073678 0.000018
vt 0.749992 1.000060
vt 0.749988 0.000063
vt 0.926258 0.000060
vt 0.750036 0.999965
vt 0.573767 -0.000036
vt 0.750037 -0.000034
vt 0.426365 0.000049
vt 0.573826 0.000053
vt 0.750091 1.000050
vt 0.521970 0.000000
vt 0.855470 1.000000
vt 0.521970 1.000000
vt 0.855470 0.000000
vt 0.666500 0.041020
vt 0.666500 0.300780
vt 0.333500 0.041020
vt -0.000000 -0.000000
vt 2.008300 -0.000000
vt 1.004400 -0.499510
vt 0.000282 -0.000342
vt 2.008630 0.999589
vt 2.008880 0.000176
vt 0.000326 0.999658
vt -0.000000 1.000000
vt 1.004400 1.499510
vt 2.008300 1.000000
vt 0.999972 0.302649
vt 0.999964 0.042889
vt 1.333460 0.042640
vt 1.000000 0.300780
vt 1.000000 0.041020
vt 1.188960 0.000000
vt 1.188960 1.000000
vt -0.811030 1.000000
vt -0.811030 -0.000000
vt 1.333540 0.301803
vt -0.666345 0.037866
vt -0.250069 1.000110
vt 0.249939 0.000106
vt 0.426205 0.000111
vt 0.188960 0.000000
vt 0.500000 0.502930
vt 1.000000 0.750000
vt 1.000000 0.250000
vt 0.500025 0.999986
vt 0.000020 0.749978
vt 0.500035 0.502900
vt -0.000000 0.250000
vt 0.500042 -0.000042
vt 0.500050 0.502843
vt 1.000050 0.749909
vt 0.500055 0.999912
vt 0.500174 0.499795
vt 0.879091 0.780054
vt 0.968922 0.356233
vt 0.499917 0.499960
vt 0.409088 0.923789
vt 0.878821 0.780235
vt 0.031095 0.643644
vt 0.409014 0.923934
vt 0.499857 0.500111
vt 1.161130 0.475590
vt 1.161130 0.000000
vt 1.494630 0.000000
vt 0.827640 0.000000
vt 0.827640 0.475590
vt 0.827640 1.000000
vt 0.494630 0.475590
vt 0.494630 -0.000000
vt 0.161130 0.000000
vt 0.161130 0.475590
vt 0.161130 1.000000
vt -0.172360 0.475590
vt -0.172360 1.000000
vt -0.505370 1.000000
vt 0.121090 0.219730
vt 0.500000 0.500000
vt 0.031250 0.643550
vt 0.590820 0.076170
vt 0.968750 0.356450
vt 0.494630 1.000000
vt 0.878910 0.780270
vt 0.409180 0.923830
vt 1.161130 1.000000
vt 1.494630 1.000000
vt 1.494630 0.475590
vt -0.505370 0.475590
vt -0.505370 0.000000
vt -0.172360 0.000000
vt 0.031116 0.643697
vt 0.499867 0.500157
vt 0.120963 0.219878
vt 0.121107 0.219740
vt 0.500018 0.500010
vt 0.590837 0.076180
vt 0.500141 0.499886
vt 0.968886 0.356328
vt 0.590950 0.076053
vn 0.5298 0.0008 0.8481
vn 0.5299 0.0006 0.8481
vn 0.5301 -0.0011 0.8479
vn -0.5301 -0.0005 0.8479
vn -0.5299 0.0014 0.8481
vn -0.5298 0.0016 0.8481
vn -0.5301 -0.0007 0.8479
vn -1.0000 -0.0002 0.0002
vn -1.0000 -0.0008 0.0001
vn -1.0000 -0.0003 0.0002
vn -0.8435 0.5371 -0.0000
vn -0.8903 0.4554 -0.0001
vn -0.8434 0.5372 0.0001
vn -0.8903 0.4553 -0.0002
vn -0.4855 0.4579 0.7447
vn -0.4916 0.4631 0.7375
vn -0.4566 0.5354 0.7105
vn -0.5208 0.3438 0.7814
vn -0.9409 0.3386 -0.0002
vn -0.5209 0.3436 -0.7814
vn -0.4960 0.4477 -0.7440
vn -0.4870 0.4540 -0.7462
vn 0.5209 0.3437 -0.7814
vn 0.4869 0.4538 -0.7463
vn 0.4960 0.4476 -0.7441
vn 0.8904 0.4552 0.0001
vn 0.9409 0.3387 0.0001
vn 0.8437 0.5368 0.0000
vn 1.0000 0.0007 -0.0003
vn 1.0000 -0.0005 -0.0001
vn 1.0000 -0.0007 -0.0001
vn 1.0000 0.0009 -0.0004
vn 0.5301 -0.0013 0.8479
vn 0.0000 -1.0000 -0.0000
vn 0.0000 -1.0000 0.0003
vn -0.0000 -1.0000 0.0004
vn -0.5298 0.0005 -0.8481
vn -0.5298 0.0004 -0.8481
vn -0.5299 0.0012 -0.8480
vn 0.5301 0.0005 -0.8479
vn 0.5299 -0.0014 -0.8481
vn 0.5301 0.0007 -0.8479
vn 0.5298 -0.0016 -0.8481
vn 0.4451 0.5424 -0.7125
vn 0.4579 0.5318 -0.7124
vn -0.4579 0.5321 -0.7122
vn -0.4452 0.5426 -0.7123
vn -0.5299 0.0013 -0.8480
vn -1.0000 -0.0009 0.0001
vn 0.4913 0.4629 0.7378
vn 0.4854 0.4579 0.7448
vn 0.4566 0.5353 0.7106
vn 0.5206 0.3438 0.7815
vn 0.4510 0.5252 0.7216
vn -0.4509 0.5250 0.7218
vn 0.4475 -0.8943 -0.0001
vn 0.2030 -0.8913 -0.4053
vn -0.2028 -0.8913 -0.4056
vn -0.2021 0.8915 -0.4054
vn -0.4469 0.8946 0.0001
vn -0.4477 -0.8942 -0.0000
vn -0.2030 -0.8914 0.4052
vn 0.2028 -0.8914 0.4053
vn 0.2020 0.8917 0.4050
vn 0.4467 0.8947 0.0000
vn 0.2022 0.8916 -0.4052
vn -0.2024 0.8917 0.4049
vn 0.6139 -0.7894 0.0001
vn 0.3369 -0.7943 -0.5055
vn -0.3366 -0.7942 -0.5059
vn -0.5094 -0.2755 -0.8153
vn -0.5378 -0.2428 -0.8073
vn -0.5035 -0.2820 -0.8167
vn 0.5096 -0.2752 -0.8152
vn 0.5038 -0.2818 -0.8166
vn 0.5381 -0.2425 -0.8072
vn 0.4796 -0.3081 -0.8216
vn 0.4709 0.3175 -0.8231
vn 0.4797 0.3083 -0.8215
vn 0.4693 0.3192 -0.8233
vn 0.9578 0.2876 -0.0002
vn 0.9578 0.2873 -0.0004
vn 0.9578 0.2875 -0.0002
vn 0.9578 -0.2876 -0.0002
vn 0.9578 -0.2875 -0.0002
vn 0.9578 -0.2873 -0.0004
vn 0.9577 -0.2879 0.0002
vn 0.5079 -0.2847 0.8130
vn 0.5040 -0.2782 0.8177
vn 0.5262 -0.3161 0.7894
vn 0.4878 -0.2513 0.8360
vn 0.4707 0.3179 0.8231
vn 0.4763 0.3266 0.8164
vn 0.4696 0.3163 0.8243
vn -0.4707 0.3180 0.8230
vn -0.4696 0.3163 0.8243
vn -0.4764 0.3269 0.8162
vn -0.4623 0.3051 0.8326
vn -0.9578 0.2875 0.0002
vn -0.9579 0.2872 -0.0001
vn -0.9578 0.2876 0.0002
vn -0.4860 0.8739 -0.0001
vn -0.2410 0.8679 0.4344
vn 0.2411 0.8680 0.4341
vn 0.4625 0.3053 0.8324
vn 0.9577 0.2879 0.0001
vn 0.4860 0.8740 -0.0000
vn 0.2415 0.8678 -0.4343
vn 0.4584 0.3306 -0.8250
vn -0.4578 0.3310 -0.8251
vn -0.4689 0.3195 -0.8234
vn -0.4705 0.3178 -0.8232
vn -0.4794 0.3085 -0.8216
vn -0.4794 -0.3083 -0.8217
vn -0.9578 -0.2874 0.0004
vn -0.9577 0.2878 0.0004
vn -0.9578 -0.2873 0.0003
vn -0.6143 -0.7891 0.0007
vn -0.3378 -0.7941 0.5053
vn 0.3372 -0.7943 0.5053
vn -0.5084 -0.2844 0.8128
vn -0.5267 -0.3159 0.7891
vn -0.5045 -0.2778 0.8175
vn -0.4881 -0.2508 0.8360
vn -0.2412 0.8677 -0.4346
g PawnW_PawnW_M_28ABDC6B_c
usemtl M_28ABDC6B_c
s 1
f 29/1/1 30/2/2 31/3/3
f 32/4/4 30/2/5 29/1/6
f 32/4/4 33/5/7 30/2/5
f 32/6/8 34/7/9 33/8/10
f 32/9/11 35/10/12 34/11/13
f 32/9/11 36/12/14 35/10/12
f 37/13/15 36/12/16 32/9/17
f 38/14/18 36/15/16 37/16/15
f 36/17/14 38/18/19 35/19/12
f 38/20/20 39/21/21 35/22/22
f 38/23/23 40/24/24 39/25/25
f 41/26/26 40/27/26 38/28/27
f 31/29/28 40/30/26 41/31/26
f 31/29/28 42/32/28 40/30/26
f 31/3/29 43/33/30 42/34/31
f 31/3/29 44/35/32 43/33/30
f 31/3/3 30/2/2 44/35/33
f 33/36/34 44/37/34 30/38/35
f 33/39/34 43/40/34 44/41/34
f 45/42/34 43/40/34 33/39/34
f 45/43/34 46/44/36 43/45/34
f 47/46/37 46/47/38 45/48/39
f 47/49/40 43/33/41 46/50/42
f 47/49/40 42/34/43 43/33/41
f 40/30/24 42/32/44 47/51/45
f 40/30/24 47/51/45 39/52/25
f 39/53/21 47/54/46 35/10/22
f 35/10/22 47/54/46 34/11/47
f 47/46/37 45/48/39 34/55/48
f 33/8/10 34/7/9 45/56/49
f 41/31/50 37/13/51 31/29/52
f 38/57/53 37/58/51 41/59/50
f 37/13/51 29/60/54 31/29/52
f 37/13/15 32/9/17 29/60/55
g PawnW_PawnW_M_65D796C7_c
usemtl M_65D796C7_c
f 1/61/56 2/62/56 3/63/56
f 1/61/57 4/64/57 2/62/57
f 5/65/58 4/64/58 1/61/58
f 5/65/59 6/66/59 4/64/59
f 5/65/60 7/67/60 6/66/60
f 5/65/61 1/61/61 7/67/61
f 7/67/62 1/61/62 8/68/62
f 8/68/63 1/61/63 3/63/63
f 8/68/64 3/63/64 6/66/64
f 6/66/65 3/63/65 2/62/65
f 6/69/66 2/70/66 4/71/66
f 7/67/67 8/68/67 6/66/67
g PawnW_PawnW_M_5EE0F6C7_c
usemtl M_5EE0F6C7_c
f 9/72/68 10/73/68 11/74/68
f 9/75/69 12/76/69 10/77/69
f 13/78/70 12/79/70 9/80/70
f 14/81/71 12/82/72 13/83/73
f 14/81/74 10/84/75 12/82/76
f 14/81/74 15/85/77 10/84/75
f 16/86/78 15/85/79 14/81/80
f 17/87/81 15/85/82 16/86/83
f 17/87/84 10/84/85 15/85/86
f 17/87/84 11/88/87 10/84/85
f 17/87/88 18/89/89 11/88/90
f 17/87/88 19/90/91 18/89/89
f 20/91/92 19/90/93 17/87/94
f 20/91/95 21/92/96 19/90/97
f 22/93/98 21/92/96 20/91/95
f 21/92/99 22/93/100 23/94/101
f 22/95/102 24/96/102 23/97/102
f 22/95/103 20/98/103 24/96/103
f 24/96/104 20/98/104 25/99/104
f 25/100/105 20/91/92 17/87/94
f 17/87/81 16/86/83 25/100/106
f 24/96/107 25/99/107 16/101/107
f 24/96/108 16/101/108 26/102/108
f 26/103/109 16/86/78 14/81/80
f 26/103/110 14/81/111 23/104/112
f 23/104/112 14/81/111 27/105/113
f 14/81/71 13/83/73 27/105/114
f 21/92/115 27/106/115 13/107/115
f 21/92/99 23/94/101 27/106/116
f 21/92/115 13/107/115 28/108/117
f 13/109/118 9/110/118 28/111/118
f 28/112/119 9/113/119 18/114/119
f 9/115/120 11/116/120 18/117/120
f 21/92/121 28/108/122 18/89/123
f 21/92/121 18/89/123 19/90/124
f 23/97/125 24/96/125 26/102/125
