# Blender v2.93.4 OBJ File: ''
# www.blender.org
mtllib QueenW.mtl
o QueenW
v -0.000208 5.480670 0.236342
v -0.000270 5.669330 0.000290
v -0.236500 5.480280 0.141767
v 0.235905 5.480370 0.141616
v 0.235745 5.480560 -0.141619
v -0.000112 4.913480 0.000042
v -0.236660 5.480480 -0.141468
v -0.000637 5.480500 -0.235993
v 0.613805 4.772060 -0.377929
v 0.377839 3.874290 0.236369
v 0.377899 3.874340 -0.236104
v 0.613772 4.771600 0.378079
v 0.613760 5.149630 0.378052
v 0.613750 5.149550 -0.377858
v -0.000258 5.149700 -0.755596
v -0.000197 5.480420 0.000152
v -0.614527 5.149600 -0.377785
v -0.000113 4.771880 -0.755868
v -0.000288 3.874310 -0.425296
v -0.614514 4.771570 -0.377760
v -0.378377 3.873930 -0.236247
v -0.614504 4.771650 0.378151
v -0.378080 3.873890 0.236385
v -0.000586 4.771830 0.756090
v -0.614516 5.149680 0.378123
v -0.000508 5.149540 0.755860
v -0.000118 3.874140 0.425113
v -0.425193 1.606290 -0.236291
v 0.000078 1.275690 -0.755803
v -0.661571 1.275930 -0.378051
v 0.000066 1.606240 -0.472229
v 0.425037 1.606360 -0.236152
v 0.424979 1.606320 0.236318
v 0.000079 1.606370 0.472417
v -0.425343 1.606580 0.236383
v -0.661604 1.275460 0.377956
v -0.945115 0.425375 -0.566739
v -0.944875 0.425336 0.567105
v -0.944800 -0.000085 0.566996
v -0.945040 -0.000046 -0.566848
v -0.000104 0.000201 -1.133660
v 0.000015 0.000125 1.133860
v -0.000059 0.425543 1.133970
v -0.000262 1.275860 0.755855
v 0.661388 1.275620 0.378099
v 0.944964 0.425469 0.566958
v 0.944951 0.000370 0.567048
v 0.944710 0.000412 -0.566794
v -0.000090 0.425297 -1.133750
v 0.944724 0.425507 -0.566886
v 0.661288 1.275860 -0.377608
v 0.000008 3.448970 -0.000021
v -0.756026 3.732220 0.425130
v -0.756196 3.732390 -0.425277
v -0.000170 3.732580 0.897586
v 0.755764 3.732480 0.425193
v -0.000115 4.110360 0.000161
v 0.755596 3.732650 -0.425214
v -0.000262 3.732290 -0.897670
v -0.184481 3.801262 0.102549
v -0.000077 3.795736 0.205523
v 0.184750 3.795226 0.102882
v 0.184777 3.795230 -0.102639
v -0.183852 3.806274 -0.102023
v -0.000083 3.800768 -0.204649
vt 0.000000 0.000000
vt 0.000000 0.000000
vt 0.000000 0.000000
vt 0.000000 0.000000
vt 0.000000 0.000000
vt 0.000000 0.000000
vt 0.500000 1.000000
vt 0.166500 0.381840
vt 0.500000 0.381840
vt 0.166500 1.000000
vt 0.073735 0.000057
vt -0.109174 0.565065
vt -0.173319 0.565069
vt -0.073725 0.000057
vt 0.426181 0.000009
vt 0.573640 0.000007
vt 0.673743 0.567844
vt 0.610026 0.567875
vt 0.833500 1.000000
vt 0.833500 0.381840
vt 0.500000 -0.000000
vt 0.833500 0.000000
vt 0.521970 1.000000
vt 0.855470 0.000000
vt 0.855470 1.000000
vt 0.521970 0.000000
vt -0.499930 0.999069
vt 1.000000 1.998530
vt 0.000001 1.998530
vt 1.499930 0.999448
vt 1.188960 -0.000034
vt 1.188960 0.999959
vt 1.166500 0.381840
vt 1.166500 0.000000
vt 1.166500 1.000000
vt 1.500000 1.000000
vt 1.500000 0.381840
vt 1.500000 0.000000
vt -0.810893 0.998552
vt -0.477957 -0.000904
vt -0.477893 0.998345
vt -0.810904 -0.001448
vt 1.000000 -0.000012
vt 0.000000 -0.000010
vt 0.188961 0.999992
vt -0.144529 -0.000007
vt 0.188961 -0.000008
vt -0.144529 0.999991
vt -0.478030 1.000000
vt -0.166500 -0.000000
vt -0.166500 0.381840
vt -0.500000 -0.000000
vt 0.166500 0.000000
vt 0.521864 0.999191
vt 0.188854 0.998980
vt 0.188919 -0.000255
vt 0.521875 -0.000809
vt -0.166500 1.000000
vt -0.500000 0.381840
vt -0.500000 1.000000
vt -0.478030 0.000004
vt 0.827069 0.565121
vt 0.750394 0.565246
vt 0.750410 0.000110
vt 0.926679 0.000113
vt 0.749074 0.565337
vt 0.672440 0.565445
vt 0.572778 0.000206
vt 0.749047 0.000202
vt -0.031832 0.566401
vt -0.107787 0.564959
vt 0.075110 -0.000047
vt 0.251381 -0.000049
vt 0.041985 0.567945
vt -0.033478 0.566528
vt 0.249767 0.000078
vt 0.426035 0.000081
vt 0.000000 0.000000
vt 0.000000 0.000000
vt 0.000000 0.000000
vt 0.000000 0.000000
vt 0.000000 0.000000
vt 0.000000 0.000000
vt -0.166990 0.500000
vt -0.500000 0.000000
vt -0.166990 0.000000
vt -0.500000 0.500000
vt -0.167002 0.500530
vt -0.500059 0.999784
vt -0.500055 0.499784
vt -0.167049 0.999806
vt 0.168184 0.998467
vt -0.165782 0.998316
vt -0.165847 0.498748
vt 0.000151 0.249753
vt 0.500146 -0.000254
vt 0.500158 0.502675
vt 0.500315 0.502641
vt 0.500303 -0.000290
vt 1.000310 0.249704
vt 0.166910 1.001190
vt 0.166777 0.501482
vt 0.499797 1.001430
vt 0.168133 0.498467
vt 0.166990 0.500000
vt 0.166311 0.500260
vt -0.167662 0.000257
vt 0.166318 0.000259
vt 0.166964 0.499850
vt 0.166964 -0.000150
vt 0.499974 0.499850
vt 0.500000 0.500000
vt 0.166990 -0.000000
vt 0.500000 -0.000000
vt 0.833010 0.500000
vt 0.833010 0.000000
vt 1.166990 0.500000
vt 0.833916 0.996281
vt 0.833893 0.496281
vt 1.167890 0.496577
vt 0.833010 0.999999
vt 0.500000 0.999999
vt 0.499787 0.501427
vt 0.500000 0.502930
vt 1.000000 0.250000
vt 1.000000 0.750000
vt 0.500109 0.502959
vt 1.000110 0.750027
vt 0.500112 1.000030
vt 1.167900 0.996152
vt 1.500520 0.999093
vt 1.167590 0.998756
vt 1.167490 0.499186
vt 0.000080 0.749933
vt 0.500078 0.502861
vt 0.500081 0.999931
vt -0.000000 0.750000
vt -0.000000 0.250000
vt 1.500500 0.499093
vt 1.166990 -0.000003
vt 1.500000 0.499997
vt 1.500000 -0.000000
vt 0.437500 -0.238280
vt 0.589840 0.380860
vt 0.027340 0.113280
vt 1.000000 0.029300
vt 1.150390 0.648440
vt 2.023440 -0.765630
vt 1.445310 -0.765630
vt 1.734380 0.000000
vt 0.869601 -0.765640
vt 1.158700 -0.000013
vt 1.447720 -0.765648
vt 0.870050 -0.765847
vt 0.291919 -0.765839
vt 0.581025 -0.000214
vt -0.289060 -0.765630
vt 0.000000 -0.000000
vt 0.289060 -0.765630
vt 2.593600 -0.765319
vt 2.882700 0.000308
vt 3.171720 -0.765329
vt 2.015230 -0.764709
vt 2.304330 0.000915
vt 2.591400 -0.764719
vt 0.740230 1.000000
vt 0.177730 0.732420
vt 0.500000 0.502930
vt 1.000000 0.750000
vt 1.000000 0.250000
vt 0.499989 1.000000
vt -0.000009 0.750007
vt 0.000322 0.749935
vt 0.500303 0.502842
vt 0.500338 0.999914
vt 0.000143 0.750012
vt 0.000144 0.250012
vt 0.500144 0.502943
vt 0.000000 0.250000
vt 0.500000 0.000000
vt 0.500364 0.502791
vt 0.500325 -0.000141
vt 1.000340 0.249835
vt -0.000517 0.250285
vt 0.499497 0.000305
vt 0.499466 0.503236
vt 0.499442 0.502951
vt 0.999443 0.250022
vt 0.999442 0.750022
vt 0.499643 0.503634
vt 0.999623 0.750728
vt 0.499607 1.000710
vn 0.0368 0.9992 0.0123
vn 0.0163 0.9996 0.0245
vn 0.0096 0.9999 0.0123
vn 0.0299 0.9996 0.0000
vn -0.3969 0.5919 -0.7015
vn -0.4381 0.4607 -0.7719
vn -0.4477 0.4532 -0.7708
vn -0.3880 0.6001 -0.6995
vn 0.9940 0.1091 0.0001
vn -0.9940 0.1091 -0.0004
vn -0.9030 0.4296 0.0000
vn -0.8137 0.5813 0.0000
vn -0.8131 0.5821 -0.0006
vn -0.9032 0.4293 0.0002
vn -0.9889 0.1487 0.0002
vn -1.0000 -0.0002 0.0002
vn 0.0002 -1.0000 -0.0000
vn -0.5145 -0.0003 0.8575
vn -0.4476 0.4552 0.7697
vn -0.4748 0.3479 0.8084
vn -0.4808 0.3562 0.8012
vn -0.4417 0.4479 0.7774
vn -0.3967 0.5934 0.7003
vn -0.3935 0.5843 0.7098
vn 0.3888 0.5995 0.6996
vn 0.4384 0.4606 0.7718
vn 0.3974 0.5915 0.7015
vn 0.4479 0.4532 0.7707
vn 0.5038 0.1647 0.8480
vn 0.5076 0.1636 0.8459
vn 0.5145 0.0001 0.8575
vn 0.5144 -0.0001 0.8576
vn 0.5145 -0.0002 -0.8575
vn 0.9889 0.1488 -0.0002
vn 1.0000 -0.0000 -0.0002
vn 0.9030 0.4297 -0.0000
vn 0.4418 0.4482 -0.7772
vn 0.4748 0.3479 -0.8084
vn 0.4476 0.4551 -0.7697
vn 0.4807 0.3561 -0.8013
vn -0.5038 0.1645 -0.8480
vn -0.5075 0.1635 -0.8460
vn -0.5145 -0.0001 -0.8575
vn -0.5144 0.0001 -0.8576
vn 0.3968 0.5936 -0.7002
vn 0.3937 0.5850 -0.7091
vn 0.8135 0.5815 0.0001
vn 0.8135 0.5816 0.0001
vn 0.4830 0.1060 0.8692
vn -0.4824 0.1060 0.8695
vn 0.4829 0.1060 -0.8693
vn -0.4824 0.1060 -0.8695
vn 0.0002 -1.0000 -0.0002
vn 0.0003 -1.0000 -0.0001
vn 0.0010 -1.0000 -0.0001
vn 0.0008 -1.0000 -0.0002
vn 0.9926 -0.1216 -0.0000
vn 0.9672 -0.2542 0.0000
vn 0.9672 -0.2541 0.0001
vn 0.9926 -0.1217 -0.0000
vn 1.0000 0.0001 0.0000
vn 0.5242 0.0006 -0.8516
vn 0.5240 0.0002 -0.8517
vn 0.5200 -0.1263 -0.8448
vn 0.2397 0.8894 -0.3892
vn -0.2395 0.8895 -0.3892
vn -0.5239 0.0004 -0.8518
vn -0.5187 -0.1419 -0.8431
vn -0.5240 0.0001 -0.8517
vn 0.5103 -0.1309 -0.8500
vn 0.4584 -0.2929 -0.8391
vn 0.4250 -0.3129 -0.8494
vn -0.4609 -0.2707 -0.8451
vn -0.5094 -0.1382 -0.8494
vn -0.4328 -0.2504 -0.8660
vn -0.9926 -0.1218 0.0000
vn -0.9670 -0.2546 0.0004
vn -0.9926 -0.1218 0.0001
vn -0.9670 -0.2548 0.0006
vn -0.5101 -0.1312 0.8501
vn -0.5200 -0.1266 0.8447
vn -0.4578 -0.2933 0.8393
vn -0.5242 0.0002 0.8516
vn -1.0000 -0.0000 0.0000
vn -0.4741 0.8805 -0.0001
vn -0.2393 0.8895 0.3893
vn -0.5240 0.0006 0.8517
vn 0.5240 0.0002 0.8517
vn 0.5239 0.0004 0.8518
vn 0.5186 -0.1419 0.8431
vn 0.2394 0.8894 0.3895
vn 0.4744 0.8803 -0.0001
vn 0.5093 -0.1382 0.8494
vn 0.4608 -0.2709 0.8452
vn -0.4241 -0.3135 0.8497
vn 0.4326 -0.2505 0.8661
vn -0.2436 0.7576 0.6056
vn 0.2439 0.7576 0.6054
vn 0.6247 0.7809 0.0002
vn 0.9233 -0.3842 -0.0008
vn 0.3469 -0.3606 0.8658
vn -0.3460 -0.3609 0.8660
vn -0.9229 -0.3850 0.0002
vn -0.3467 -0.3607 -0.8658
vn 0.3460 -0.3603 -0.8663
vn 0.2418 0.7578 -0.6060
vn -0.2425 0.7580 -0.6054
vn -0.6245 0.7810 0.0009
vn -0.2471 -0.9690 0.0001
vn -0.2713 -0.9506 0.1509
vn -0.2714 -0.9506 -0.1509
vn -0.1846 -0.9372 0.2961
vn 0.2716 -0.9505 0.1509
vn 0.1849 -0.9371 0.2961
vn 0.2475 -0.9689 0.0000
vn 0.2357 0.8957 0.3771
vn 0.4471 0.8945 0.0001
vn 0.2718 -0.9504 -0.1510
vn 0.1854 -0.9371 -0.2958
vn -0.1849 -0.9372 -0.2957
vn -0.2356 0.8957 -0.3771
vn 0.2354 0.8957 -0.3772
vn -0.4473 0.8944 0.0003
vn -0.2361 0.8956 0.3770
g QueenW_QueenW_M_6589192F_c
usemtl M_6589192F_c
s off
f 64/1/1 61/2/1 65/3/1
f 60/4/2 61/2/2 64/1/2
f 61/2/3 62/5/3 65/3/3
f 62/5/4 63/6/4 65/3/4
s 1
f 28/7/5 29/8/6 30/9/7
f 28/7/5 31/10/8 29/8/6
f 32/11/9 63/12/9 62/13/9 33/14/9
f 28/15/10 35/16/10 60/17/10 64/18/10
f 30/9/11 35/19/12 28/7/13
f 30/9/11 36/20/14 35/19/12
f 37/21/15 36/20/14 30/9/11
f 37/21/15 38/22/15 36/20/14
f 37/23/15 39/24/16 38/25/15
f 40/26/16 39/24/16 37/23/15
f 41/27/17 39/28/17 40/29/17
f 42/30/17 39/28/17 41/27/17
f 38/25/18 39/24/18 42/31/18
f 43/32/18 38/25/18 42/31/18
f 44/33/19 38/22/20 43/34/21
f 44/33/19 36/20/22 38/22/20
f 34/35/23 36/20/22 44/33/19
f 35/19/24 36/20/22 34/35/23
f 34/35/25 44/33/26 33/36/27
f 33/36/27 44/33/26 45/37/28
f 44/33/26 43/34/29 45/37/28
f 45/37/28 43/34/29 46/38/30
f 43/39/29 47/40/31 46/41/30
f 43/39/29 42/42/32 47/40/31
f 47/43/17 42/30/17 48/44/17
f 48/44/17 42/30/17 41/27/17
f 49/45/33 48/46/33 41/47/33
f 50/48/33 48/46/33 49/45/33
f 50/48/34 46/49/34 48/46/35
f 50/50/34 51/51/36 46/52/34
f 51/51/37 50/50/38 29/8/39
f 29/8/39 50/50/38 49/53/40
f 30/9/7 29/8/6 49/53/41
f 30/9/7 49/53/41 37/21/42
f 37/54/42 49/55/41 41/56/43
f 37/54/42 41/56/43 40/57/44
f 31/10/45 51/51/37 29/8/39
f 32/58/46 51/51/37 31/10/45
f 51/51/36 32/58/47 45/59/36
f 32/58/47 33/60/48 45/59/36
f 51/51/36 45/59/36 46/52/34
f 48/46/35 46/49/34 47/61/35
f 62/62/49 61/63/49 34/64/49 33/65/49
f 61/66/50 60/67/50 35/68/50 34/69/50
f 65/70/51 63/71/51 32/72/51 31/73/51
f 64/74/52 65/75/52 31/76/52 28/77/52
g QueenW_QueenW_M_3533C282_c
usemtl M_3533C282_c
s off
f 19/78/53 11/79/53 27/80/53
f 10/81/54 27/80/54 11/79/54
f 23/82/55 21/83/55 19/78/55
f 23/82/56 19/78/56 27/80/56
s 1
f 9/84/57 10/85/58 11/86/59
f 9/84/57 12/87/60 10/85/58
f 9/88/57 13/89/61 12/90/60
f 9/88/57 14/91/61 13/89/61
f 15/92/62 14/93/63 9/94/64
f 14/95/65 15/96/65 16/97/65
f 16/98/66 15/99/66 17/100/66
f 15/101/67 18/102/68 17/103/69
f 15/92/62 9/94/64 18/104/70
f 9/84/64 11/86/71 18/105/70
f 18/106/70 11/107/71 19/108/72
f 18/109/68 19/110/73 20/111/74
f 20/112/74 19/113/73 21/114/75
f 20/112/76 21/114/77 22/115/78
f 21/114/77 23/116/79 22/115/78
f 24/117/80 22/115/81 23/116/82
f 25/118/83 22/119/81 24/120/80
f 20/112/76 22/115/78 25/121/84
f 17/122/84 20/112/76 25/121/84
f 17/103/69 18/102/68 20/123/74
f 16/124/85 17/125/85 25/126/85
f 16/127/86 25/128/86 26/129/86
f 25/118/83 24/120/80 26/130/87
f 13/131/88 26/132/89 24/133/90
f 13/134/91 16/135/91 26/136/91
f 13/137/92 14/138/92 16/124/92
f 13/131/88 24/133/90 12/139/93
f 24/117/90 27/140/94 12/141/93
f 24/117/80 23/116/82 27/140/95
f 12/141/93 27/140/94 10/142/96
g QueenW_QueenW_M_38A528A6_c
usemtl M_38A528A6_c
f 1/143/97 2/144/97 3/145/97
f 4/146/98 2/144/98 1/143/98
f 4/146/99 5/147/99 2/144/99
f 5/148/100 4/149/100 6/150/100
f 1/151/101 6/152/101 4/153/101
f 1/154/102 3/155/102 6/156/102
f 7/157/103 6/158/103 3/159/103
f 8/160/104 6/161/104 7/162/104
f 5/163/105 6/164/105 8/165/105
f 5/147/106 8/166/106 2/144/106
f 2/144/107 8/166/107 7/167/107
f 2/144/108 7/167/108 3/145/108
g QueenW_QueenW_DD4B6F7_c
usemtl DD4B6F7_c
f 52/168/109 53/169/110 54/170/111
f 52/168/109 55/171/112 53/169/110
f 56/172/113 55/171/114 52/168/115
f 56/173/116 57/174/116 55/175/116
f 56/176/117 58/177/117 57/178/117
f 56/172/113 52/168/115 58/179/118
f 58/179/118 52/168/115 59/180/119
f 52/168/109 54/170/111 59/180/120
f 57/181/121 59/182/121 54/183/121
f 58/184/122 59/185/122 57/186/122
f 57/187/123 54/188/123 53/189/123
f 57/190/124 53/191/124 55/192/124
